<?xml version="1.0" encoding="utf-8"?>
<!-- Generator: Adobe Illustrator 24.0.1, SVG Export Plug-In . SVG Version: 6.00 Build 0)  -->
<svg version="1.1" id="Capa_1" xmlns="http://www.w3.org/2000/svg" xmlns:xlink="http://www.w3.org/1999/xlink" x="0px" y="0px"
	 viewBox="0 0 58 58" style="enable-background:new 0 0 58 58;" xml:space="preserve">
<style type="text/css">
	.st0{fill:#656565;}
</style>
<g>
	<path class="st0" d="M52,36.7V17.4c0-0.6-0.1-1-0.4-1.4l-9-8.9c-0.2-0.3-0.6-0.5-1-0.5H19.3c-0.9,0-1.9,0.7-1.9,2.2v27.8H52V36.7z
		 M41.2,9.3c0-0.4,0.5-0.5,0.7-0.3l7.8,7.8c0.2,0.2,0.1,0.7-0.3,0.7h-8.2V9.3z M39.1,21.1c-0.3-0.3-0.3-0.8,0-1.1
		c0.3-0.3,0.8-0.3,1.1,0l4.6,4.6c0.3,0.3,0.3,0.8,0,1.1l-4.6,4.6c-0.2,0.2-0.3,0.2-0.5,0.2s-0.4-0.1-0.5-0.2c-0.3-0.3-0.3-0.8,0-1.1
		l4.1-4.1L39.1,21.1z M25.3,24.6l4.6-4.6c0.3-0.3,0.8-0.3,1.1,0c0.3,0.3,0.3,0.8,0,1.1l-4.1,4.1l4.1,4.1c0.3,0.3,0.3,0.8,0,1.1
		c-0.2,0.2-0.3,0.2-0.5,0.2s-0.4-0.1-0.5-0.2l-4.6-4.6C25,25.4,25,24.9,25.3,24.6z"/>
	<path class="st0" d="M17.3,38.2v11.6c0,0.8,0.9,1.5,1.9,1.5H50c0.9,0,1.9-0.8,1.9-1.5V38.2H17.3z M26.6,48.3h-1.2v-3.5H22v3.5h-1.3
		v-7.8H22v3.4h3.4v-3.4h1.2V48.3z M34,41.3h-2.3v6.9h-1.3v-6.9H28v-0.8h6V41.3L34,41.3z M42.7,48.3h-1.3V43l-1.8,4.3h-1.1L36.7,43
		v5.3h-1.3v-7.8h1.3l2.3,5.3l2.3-5.3h1.3L42.7,48.3L42.7,48.3z M49.5,48.3h-4.9v-7.8h1.3v6.8h3.5v1H49.5z"/>
</g>
</svg>
